<svg xmlns="http://www.w3.org/2000/svg" width="512" height="512" viewBox="0 0 512 512" role="img" aria-labelledby="title desc">
  <title id="title">Realtime Mouse Tracker for Ecwid Icon</title>
  <desc id="desc">A marketplace icon based on the current Ecwid-native dashboard style.</desc>
  <rect width="512" height="512" rx="96" fill="#FFFFFF" />
  <rect x="56" y="56" width="400" height="400" rx="88" fill="#F5F5F5" />
  <rect x="92" y="104" width="328" height="256" rx="24" fill="#FFFFFF" stroke="#E6E6E6" stroke-width="4" />
  <rect x="120" y="132" width="94" height="20" rx="10" fill="#FCE8E8" />
  <rect x="232" y="132" width="74" height="20" rx="10" fill="#EFEFEF" />
  <rect x="120" y="178" width="84" height="88" rx="16" fill="#333333" />
  <rect x="216" y="178" width="84" height="88" rx="16" fill="#FFFFFF" stroke="#E6E6E6" stroke-width="4" />
  <rect x="312" y="178" width="84" height="88" rx="16" fill="#FFFFFF" stroke="#E6E6E6" stroke-width="4" />
  <rect x="120" y="286" width="276" height="18" rx="9" fill="#E6E6E6" />
  <rect x="120" y="318" width="190" height="18" rx="9" fill="#E6E6E6" />
  <circle cx="383" cy="120" r="18" fill="#E52222" />
  <path d="M308 408L255 278c-4-10 6-20 16-16l126 50c11 4 11 20 0 24l-44 15-15 44c-4 11-20 11-24 0Z" fill="#333333" />
</svg>