<svg xmlns="http://www.w3.org/2000/svg" width="1600" height="900" viewBox="0 0 1600 900" role="img" aria-labelledby="title desc">
  <title id="title">Realtime Mouse Tracker for Ecwid Listing Banner</title>
  <desc id="desc">Marketplace banner matching the current Ecwid-style dashboard UI.</desc>
  <rect width="1600" height="900" fill="#FFFFFF" />
  <rect x="72" y="72" width="1456" height="756" rx="44" fill="#F7F7F7" />
  <g transform="translate(124 130)">
    <rect x="0" y="0" width="252" height="48" rx="24" fill="#FCE8E8" />
    <text x="24" y="31" font-family="Segoe UI, Arial, sans-serif" font-size="22" font-weight="700" fill="#E52222">ECWID NATIVE DASHBOARD</text>
    <text x="0" y="132" font-family="Segoe UI, Arial, sans-serif" font-size="84" font-weight="800" fill="#333333">Realtime Mouse Tracker</text>
    <text x="0" y="214" font-family="Segoe UI, Arial, sans-serif" font-size="84" font-weight="800" fill="#333333">for Ecwid</text>
    <text x="0" y="292" font-family="Segoe UI, Arial, sans-serif" font-size="32" fill="#666666">Preview mode, same-browser self-test, and setup tooling in a static app module.</text>
    <g transform="translate(0 366)">
      <rect x="0" y="0" width="198" height="54" rx="10" fill="#333333" />
      <text x="28" y="35" font-family="Segoe UI, Arial, sans-serif" font-size="24" font-weight="700" fill="#FFFFFF">Preview Mode</text>
      <rect x="218" y="0" width="276" height="54" rx="10" fill="#FFFFFF" stroke="#E6E6E6" stroke-width="2" />
      <text x="248" y="35" font-family="Segoe UI, Arial, sans-serif" font-size="24" font-weight="700" fill="#333333">Same-Browser Self-Test</text>
    </g>
  </g>
  <g transform="translate(864 126)">
    <rect x="0" y="0" width="592" height="648" rx="22" fill="#FFFFFF" stroke="#E6E6E6" stroke-width="4" />
    <rect x="34" y="34" width="524" height="132" rx="12" fill="#FFFFFF" stroke="#E6E6E6" stroke-width="2" />
    <text x="58" y="78" font-family="Segoe UI, Arial, sans-serif" font-size="24" font-weight="700" fill="#333333">Live Overview</text>
    <text x="58" y="116" font-family="Segoe UI, Arial, sans-serif" font-size="20" fill="#666666">Showing Product page friction. This never writes to live browser state.</text>
    <circle cx="524" cy="78" r="14" fill="#E52222" />
    <g transform="translate(34 190)">
      <rect x="0" y="0" width="112" height="102" rx="8" fill="#FFFFFF" stroke="#E6E6E6" stroke-width="2" />
      <text x="18" y="32" font-family="Segoe UI, Arial, sans-serif" font-size="16" fill="#666666">Active</text>
      <text x="18" y="76" font-family="Segoe UI, Arial, sans-serif" font-size="42" font-weight="800" fill="#333333">5</text>
      <rect x="128" y="0" width="112" height="102" rx="8" fill="#FFFFFF" stroke="#E6E6E6" stroke-width="2" />
      <text x="146" y="32" font-family="Segoe UI, Arial, sans-serif" font-size="16" fill="#666666">Queued</text>
      <text x="146" y="76" font-family="Segoe UI, Arial, sans-serif" font-size="42" font-weight="800" fill="#333333">1</text>
      <rect x="256" y="0" width="112" height="102" rx="8" fill="#FFFFFF" stroke="#E6E6E6" stroke-width="2" />
      <text x="274" y="32" font-family="Segoe UI, Arial, sans-serif" font-size="16" fill="#666666">EPM</text>
      <text x="274" y="76" font-family="Segoe UI, Arial, sans-serif" font-size="42" font-weight="800" fill="#333333">26</text>
      <rect x="384" y="0" width="140" height="102" rx="8" fill="#333333" />
      <text x="402" y="32" font-family="Segoe UI, Arial, sans-serif" font-size="16" fill="#FFFFFF">Rage Clicks</text>
      <text x="402" y="76" font-family="Segoe UI, Arial, sans-serif" font-size="42" font-weight="800" fill="#FFFFFF">3</text>
    </g>
    <g transform="translate(34 324)">
      <rect x="0" y="0" width="252" height="232" rx="12" fill="#FFFFFF" stroke="#E6E6E6" stroke-width="2" />
      <text x="20" y="36" font-family="Segoe UI, Arial, sans-serif" font-size="22" font-weight="700" fill="#333333">Tracked Visitors</text>
      <text x="20" y="78" font-family="Segoe UI, Arial, sans-serif" font-size="19" fill="#333333">Bamboo Desk Lamp</text>
      <text x="20" y="108" font-family="Segoe UI, Arial, sans-serif" font-size="17" fill="#666666">/p/bamboo-desk-lamp</text>
      <rect x="20" y="128" width="96" height="30" rx="15" fill="#FCE8E8" />
      <text x="40" y="148" font-family="Segoe UI, Arial, sans-serif" font-size="14" font-weight="700" fill="#E52222">rage_click</text>
      <rect x="126" y="128" width="78" height="30" rx="15" fill="#F3F3F3" />
      <text x="146" y="148" font-family="Segoe UI, Arial, sans-serif" font-size="14" font-weight="700" fill="#333333">2 rage</text>
      <text x="20" y="194" font-family="Segoe UI, Arial, sans-serif" font-size="19" fill="#333333">Ceramic Pour Over Set</text>
      <text x="20" y="224" font-family="Segoe UI, Arial, sans-serif" font-size="17" fill="#666666">/p/ceramic-pour-over-set</text>
      <rect x="20" y="244" width="64" height="30" rx="15" fill="#F3F3F3" />
      <text x="40" y="264" font-family="Segoe UI, Arial, sans-serif" font-size="14" font-weight="700" fill="#333333">click</text>
      <rect x="294" y="0" width="230" height="232" rx="12" fill="#FFFFFF" stroke="#E6E6E6" stroke-width="2" />
      <text x="314" y="36" font-family="Segoe UI, Arial, sans-serif" font-size="22" font-weight="700" fill="#333333">Recent Signals</text>
      <text x="314" y="80" font-family="Segoe UI, Arial, sans-serif" font-size="18" font-weight="700" fill="#333333">rage click</text>
      <text x="314" y="108" font-family="Segoe UI, Arial, sans-serif" font-size="16" fill="#666666">PRODUCT · /p/bamboo-desk-lamp</text>
      <text x="314" y="154" font-family="Segoe UI, Arial, sans-serif" font-size="18" font-weight="700" fill="#333333">click</text>
      <text x="314" y="182" font-family="Segoe UI, Arial, sans-serif" font-size="16" fill="#666666">PRODUCT · /p/ceramic-pour-over-set</text>
    </g>
  </g>
</svg>